<?xml version="1.0" standalone="yes"?>

<svg version="1.1" viewBox="0.0 0.0 880.5826771653543 593.1023622047244" fill="none" stroke="none" stroke-linecap="square" stroke-miterlimit="10" xmlns="http://www.w3.org/2000/svg" xmlns:xlink="http://www.w3.org/1999/xlink"><clipPath id="p.0"><path d="m0 0l880.5827 0l0 593.10236l-880.5827 0l0 -593.10236z" clip-rule="nonzero"></path></clipPath><g clip-path="url(#p.0)"><path fill="#000000" fill-opacity="0.0" d="m0 0l880.5827 0l0 593.10236l-880.5827 0z" fill-rule="evenodd"></path><path fill="#cc4125" d="m339.31226 8.0l201.88977 0l0 107.08662l-201.88977 0z" fill-rule="evenodd"></path><path stroke="#000000" stroke-width="2.0" stroke-linejoin="round" stroke-linecap="butt" d="m339.31226 8.0l201.88977 0l0 107.08662l-201.88977 0z" fill-rule="evenodd"></path><path fill="#ffffff" d="m428.4583 52.94268l0 1.921875l-5.71875 0l0 15.21875l-2.28125 0l0 -15.21875l-5.71875 0l0 -1.921875l13.71875 0zm6.625 4.453125q2.53125 0 3.59375 0.90625q1.0625 0.890625 1.0625 2.40625q0 6.453125 0 7.15625q0 0.703125 0.640625 0.703125q0.140625 0 0.296875 -0.03125q0.171875 -0.03125 0.328125 -0.078125l0 1.578125q-0.28125 0.171875 -0.65625 0.25q-0.359375 0.09375 -0.796875 0.09375q-0.84375 0 -1.296875 -0.46875q-0.4375 -0.484375 -0.4375 -1.453125q-0.8125 0.953125 -1.921875 1.4375q-1.09375 0.484375 -2.453125 0.484375q-1.921875 0 -3.015625 -0.90625q-1.078125 -0.921875 -1.078125 -2.578125q0 -1.671875 1.0625 -2.65625q1.0625 -0.984375 5.015625 -1.46875q1.328125 -0.171875 1.796875 -0.515625q0.484375 -0.34375 0.484375 -1.015625q0 -1.03125 -0.671875 -1.546875q-0.65625 -0.515625 -2.09375 -0.515625q-1.515625 0 -2.265625 0.578125q-0.75 0.578125 -0.8125 1.78125l-2.046875 0q0.09375 -2.0625 1.453125 -3.09375q1.359375 -1.046875 3.8125 -1.046875zm-3.578125 9.34375q0 0.875 0.625 1.359375q0.640625 0.46875 1.765625 0.46875q1.734375 0 2.765625 -0.84375q1.03125 -0.859375 1.03125 -1.921875l0 -2.125q-0.515625 0.359375 -1.34375 0.484375q-0.8125 0.125 -2.171875 0.3125q-1.359375 0.203125 -2.015625 0.75q-0.65625 0.53125 -0.65625 1.515625zm15.515625 -9.34375q2.515625 0 3.734375 0.96875q1.21875 0.96875 1.328125 2.90625l-2.03125 0l0 -0.03125q-0.078125 -0.984375 -0.859375 -1.515625q-0.78125 -0.546875 -2.015625 -0.546875q-1.234375 0 -1.9375 0.421875q-0.703125 0.421875 -0.703125 1.171875q0 0.671875 0.625 1.109375q0.625 0.4375 1.890625 0.703125l1.921875 0.4375q1.796875 0.390625 2.734375 1.21875q0.9375 0.828125 0.9375 2.21875q0 1.828125 -1.421875 2.875q-1.40625 1.046875 -3.859375 1.046875q-2.375 0 -3.78125 -1.0625q-1.390625 -1.078125 -1.484375 -3.15625l2.0625 0q0.03125 1.171875 0.90625 1.796875q0.875 0.609375 2.421875 0.609375q1.46875 0 2.234375 -0.46875q0.765625 -0.46875 0.765625 -1.375q0 -0.84375 -0.765625 -1.328125q-0.75 -0.484375 -3.09375 -0.953125q-2.34375 -0.453125 -3.296875 -1.28125q-0.953125 -0.84375 -0.953125 -2.25q0 -1.625 1.3125 -2.5625q1.328125 -0.953125 3.328125 -0.953125zm10.03125 -4.453125l0 10.15625l5.671875 -5.421875l2.734375 0l-4.921875 4.5l5.28125 7.90625l-2.578125 0l-4.265625 -6.484375l-1.921875 1.78125l0 4.703125l-2.03125 0l0 -17.140625l2.03125 0z" fill-rule="nonzero"></path><path fill="#cc4125" d="m339.31226 242.12599l201.88977 0l0 107.08659l-201.88977 0z" fill-rule="evenodd"></path><path stroke="#000000" stroke-width="2.0" stroke-linejoin="round" stroke-linecap="butt" d="m339.31226 242.12599l201.88977 0l0 107.08659l-201.88977 0z" fill-rule="evenodd"></path><path fill="#ffffff" d="m407.89972 272.1624q3.03125 0 4.96875 1.453125q1.953125 1.453125 2.390625 4.234375l-2.28125 0q-0.328125 -1.8125 -1.671875 -2.78125q-1.328125 -0.984375 -3.421875 -0.984375q-2.734375 0 -4.3125 2.03125q-1.5625 2.03125 -1.5625 5.234375q0 2.9375 1.609375 4.890625q1.625 1.953125 4.265625 1.953125q2.46875 0 3.984375 -1.484375q1.53125 -1.484375 1.53125 -3.828125l0 -0.28125l-5.484375 0l0 -1.921875l7.5 0l0 9.03125l-1.421875 0l-0.609375 -2.140625q-0.921875 1.21875 -2.375 1.890625q-1.453125 0.65625 -3.125 0.65625q-3.5 0 -5.828125 -2.515625q-2.328125 -2.515625 -2.328125 -6.125q0 -4.0625 2.1875 -6.6875q2.203125 -2.625 5.984375 -2.625zm15.6953125 4.859375q2.671875 0 4.140625 1.921875q1.484375 1.921875 1.484375 4.921875l0 0.25l-9.28125 0l0 0.15625q0 1.765625 1.03125 2.84375q1.03125 1.078125 2.828125 1.078125q1.359375 0 2.15625 -0.625q0.8125 -0.640625 1.0625 -1.796875l2.015625 0q-0.421875 2.0625 -1.8125 3.15625q-1.390625 1.078125 -3.484375 1.078125q-1.96875 0 -3.328125 -0.890625q-1.34375 -0.890625 -1.984375 -2.453125q-0.640625 -1.578125 -0.640625 -3.234375q0 -2.75 1.640625 -4.578125q1.65625 -1.828125 4.171875 -1.828125zm-3.65625 5.296875l7.125 0q-0.09375 -1.515625 -1.109375 -2.515625q-1.0 -1.0 -2.5 -1.0q-1.40625 0 -2.40625 0.953125q-0.984375 0.953125 -1.109375 2.5625zm17.40625 -5.296875q2.234375 0 3.25 1.15625q1.015625 1.140625 1.015625 3.265625l0 8.265625l-2.03125 0l0 -8.46875q0 -1.0625 -0.6875 -1.75q-0.671875 -0.6875 -1.859375 -0.6875q-1.71875 0 -2.6875 1.0625q-0.96875 1.0625 -0.96875 2.75l0 7.09375l-2.046875 0l0 -12.40625l1.921875 0l0 1.96875l0.046875 0q0.6875 -1.171875 1.671875 -1.703125q1.0 -0.546875 2.375 -0.546875zm12.488281 0q2.671875 0 4.140625 1.921875q1.484375 1.921875 1.484375 4.921875l0 0.25l-9.28125 0l0 0.15625q0 1.765625 1.03125 2.84375q1.03125 1.078125 2.828125 1.078125q1.359375 0 2.15625 -0.625q0.8125 -0.640625 1.0625 -1.796875l2.015625 0q-0.421875 2.0625 -1.8125 3.15625q-1.390625 1.078125 -3.484375 1.078125q-1.96875 0 -3.328125 -0.890625q-1.34375 -0.890625 -1.984375 -2.453125q-0.640625 -1.578125 -0.640625 -3.234375q0 -2.75 1.640625 -4.578125q1.65625 -1.828125 4.171875 -1.828125zm-3.65625 5.296875l7.125 0q-0.09375 -1.515625 -1.109375 -2.515625q-1.0 -1.0 -2.5 -1.0q-1.40625 0 -2.40625 0.953125q-0.984375 0.953125 -1.109375 2.5625zm14.234375 -8.734375l0 3.71875l2.46875 0l0 1.796875l-2.46875 0l0 7.765625q0 0.9375 0.609375 0.984375q0.625 0.046875 1.28125 0.046875l0.578125 0l0 1.8125l-1.6875 0q-1.671875 0 -2.25 -0.59375q-0.578125 -0.609375 -0.578125 -2.015625l0 -8.0l-2.109375 0l0 -1.796875l2.109375 0l0 -3.71875l2.046875 0zm6.8710938 -1.015625l0 2.5l-2.03125 0l0 -2.5l2.03125 0zm0 4.734375l0 12.40625l-2.03125 0l0 -12.40625l2.03125 0zm8.363281 -0.28125q2.265625 0 3.6875 1.078125q1.421875 1.078125 1.671875 3.1875l-2.109375 0q-0.25 -1.21875 -1.0625 -1.84375q-0.796875 -0.640625 -2.015625 -0.640625q-1.890625 0 -2.875 1.28125q-0.984375 1.265625 -0.984375 3.578125q0 2.0625 0.96875 3.296875q0.96875 1.234375 2.640625 1.234375q1.5 0 2.359375 -0.796875q0.859375 -0.8125 1.0625 -2.21875l2.078125 0q-0.34375 2.3125 -1.75 3.578125q-1.40625 1.25 -3.71875 1.25q-2.703125 0 -4.25 -1.703125q-1.546875 -1.71875 -1.546875 -4.640625q0 -3.046875 1.5625 -4.84375q1.5625 -1.796875 4.28125 -1.796875z" fill-rule="nonzero"></path><path fill="#ffffff" d="m397.7298 301.56866l6.6875 17.140625l-2.515625 0l-1.859375 -5.15625l-7.25 0l-1.921875 5.15625l-2.359375 0l6.703125 -17.140625l2.515625 0zm-1.328125 2.0625l-2.890625 8.0l5.796875 0l-2.84375 -8.0l-0.0625 0zm11.519531 -2.0625l0 17.140625l-2.03125 0l0 -17.140625l2.03125 0zm8.238281 4.453125q1.296875 0 2.234375 0.5625q0.953125 0.5625 1.46875 1.5l0.03125 0l0 -1.78125l1.90625 0l0 11.484375q0 2.921875 -1.40625 4.4375q-1.40625 1.53125 -4.328125 1.53125q-2.140625 0 -3.609375 -0.9375q-1.453125 -0.9375 -1.546875 -2.71875l2.046875 0q0.046875 0.953125 1.015625 1.484375q0.96875 0.53125 2.1875 0.53125q1.8125 0 2.765625 -1.203125q0.96875 -1.1875 0.96875 -3.546875l0 -0.765625l-0.046875 0q-0.484375 1.03125 -1.53125 1.640625q-1.03125 0.609375 -2.34375 0.609375q-2.53125 0 -4.03125 -1.734375q-1.5 -1.734375 -1.5 -4.546875q0 -2.84375 1.5 -4.6875q1.5 -1.859375 4.21875 -1.859375zm-3.5625 6.296875q0 2.21875 0.921875 3.484375q0.921875 1.25 2.578125 1.25q1.6875 0 2.6875 -1.296875q1.0 -1.3125 1.0 -3.5q0 -2.0 -0.921875 -3.21875q-0.921875 -1.234375 -2.625 -1.234375q-1.71875 0 -2.6875 1.234375q-0.953125 1.234375 -0.953125 3.28125zm17.640625 -6.296875q2.8125 0 4.421875 1.8125q1.609375 1.8125 1.609375 4.6875q0 2.890625 -1.640625 4.6875q-1.640625 1.796875 -4.390625 1.796875q-2.6875 0 -4.359375 -1.765625q-1.65625 -1.765625 -1.65625 -4.71875q0 -2.953125 1.625 -4.71875q1.625 -1.78125 4.390625 -1.78125zm-3.859375 6.5q0 2.125 1.078125 3.40625q1.09375 1.265625 2.78125 1.265625q1.671875 0 2.765625 -1.265625q1.109375 -1.28125 1.109375 -3.40625q0 -2.125 -1.09375 -3.421875q-1.09375 -1.296875 -2.796875 -1.296875q-1.640625 0 -2.75 1.28125q-1.09375 1.265625 -1.09375 3.4375zm18.46875 -6.515625q0.0625 0 0.125 0q0.0625 0 0.15625 0.015625l0 2.15625q-2.296875 0 -3.40625 1.21875q-1.09375 1.21875 -1.09375 3.75l0 5.5625l-2.03125 0l0 -12.40625l1.921875 0l0 2.609375l0.046875 0q0.71875 -1.484375 1.765625 -2.1875q1.046875 -0.71875 2.515625 -0.71875zm3.9609375 -4.4375l0 2.5l-2.03125 0l0 -2.5l2.03125 0zm0 4.734375l0 12.40625l-2.03125 0l0 -12.40625l2.03125 0zm6.0195312 -3.71875l0 3.71875l2.46875 0l0 1.796875l-2.46875 0l0 7.765625q0 0.9375 0.609375 0.984375q0.625 0.046875 1.28125 0.046875l0.578125 0l0 1.8125l-1.6875 0q-1.671875 0 -2.25 -0.59375q-0.578125 -0.609375 -0.578125 -2.015625l0 -8.0l-2.109375 0l0 -1.796875l2.109375 0l0 -3.71875l2.046875 0zm6.7617188 -1.015625l0 6.5625l0.046875 0q0.4375 -1.0 1.5 -1.546875q1.078125 -0.5625 2.421875 -0.5625q2.234375 0 3.25 1.15625q1.015625 1.140625 1.015625 3.265625l0 8.265625l-2.03125 0l0 -8.46875q0 -1.0625 -0.6875 -1.75q-0.671875 -0.6875 -1.859375 -0.6875q-1.71875 0 -2.6875 1.0625q-0.96875 1.0625 -0.96875 2.75l0 7.09375l-2.046875 0l0 -17.140625l2.046875 0zm17.285156 4.453125q1.359375 0 2.21875 0.546875q0.859375 0.546875 1.1875 1.5625q0.640625 -1.0 1.65625 -1.546875q1.015625 -0.5625 2.25 -0.5625q2.09375 0 3.09375 0.953125q1.015625 0.9375 1.015625 2.5625l0 9.171875l-2.03125 0l0 -8.234375q0 -1.328125 -0.578125 -2.0q-0.5625 -0.671875 -1.828125 -0.671875q-1.53125 0 -2.390625 0.890625q-0.84375 0.890625 -0.84375 2.21875l0 7.796875l-2.046875 0l0 -8.234375q0 -1.328125 -0.5625 -2.0q-0.5625 -0.671875 -1.765625 -0.671875q-0.96875 0 -1.71875 0.46875q-0.75 0.46875 -1.171875 1.296875q-0.421875 0.8125 -0.421875 1.375l0 7.765625l-2.046875 0l0 -12.40625l1.921875 0l0 1.828125l0.046875 0q0.703125 -1.078125 1.703125 -1.59375q1.0 -0.515625 2.3125 -0.515625z" fill-rule="nonzero"></path><path fill="#cc4125" d="m670.6246 242.12466l201.88977 0l0 107.08661l-201.88977 0z" fill-rule="evenodd"></path><path stroke="#000000" stroke-width="2.0" stroke-linejoin="round" stroke-linecap="butt" d="m670.6246 242.12466l201.88977 0l0 107.08661l-201.88977 0z" fill-rule="evenodd"></path><path fill="#ffffff" d="m748.7218 287.06735q2.234375 0 3.65625 1.1875q1.4375 1.1875 1.4375 3.3125q0 1.6875 -0.734375 2.796875q-0.734375 1.109375 -2.234375 1.53125l0 0.046875q1.296875 0.265625 1.90625 1.21875q0.625 0.953125 0.71875 3.265625q0.046875 1.5 0.265625 2.359375q0.234375 0.859375 0.671875 1.421875l-2.53125 0q-0.21875 -0.28125 -0.28125 -0.546875q-0.0625 -0.28125 -0.125 -0.765625l-0.09375 -1.890625q-0.03125 -1.328125 -0.5625 -2.6875q-0.53125 -1.375 -2.359375 -1.4375l-5.625 0l0 7.328125l-2.28125 0l0 -17.140625l8.171875 0zm-1.015625 7.90625q1.890625 0 2.859375 -0.734375q0.984375 -0.75 0.984375 -2.328125q0 -1.375 -0.78125 -2.140625q-0.78125 -0.78125 -2.1875 -0.78125l-5.75 0l0 5.984375l4.875 0zm14.300781 -3.453125q2.8125 0 4.421875 1.8125q1.609375 1.8125 1.609375 4.6875q0 2.890625 -1.640625 4.6875q-1.640625 1.796875 -4.390625 1.796875q-2.6875 0 -4.359375 -1.765625q-1.65625 -1.765625 -1.65625 -4.71875q0 -2.953125 1.625 -4.71875q1.625 -1.78125 4.390625 -1.78125zm-3.859375 6.5q0 2.125 1.078125 3.40625q1.09375 1.265625 2.78125 1.265625q1.671875 0 2.765625 -1.265625q1.109375 -1.28125 1.109375 -3.40625q0 -2.125 -1.09375 -3.421875q-1.09375 -1.296875 -2.796875 -1.296875q-1.640625 0 -2.75 1.28125q-1.09375 1.265625 -1.09375 3.4375zm14.390625 -10.953125l0 6.421875l0.046875 0q0.484375 -0.96875 1.5 -1.46875q1.03125 -0.5 2.46875 -0.5q2.65625 0 4.1875 1.828125q1.53125 1.828125 1.53125 4.6875q0 2.890625 -1.53125 4.6875q-1.515625 1.78125 -4.125 1.78125q-1.171875 0 -2.28125 -0.484375q-1.09375 -0.484375 -1.75 -1.46875l-0.046875 0l0 1.65625l-2.03125 0l0 -17.140625l2.03125 0zm-0.0625 10.921875q0 2.15625 1.03125 3.4375q1.046875 1.265625 2.875 1.265625q1.78125 0 2.75 -1.265625q0.96875 -1.265625 0.96875 -3.53125q0 -2.0 -1.03125 -3.296875q-1.015625 -1.296875 -2.828125 -1.296875q-1.78125 0 -2.78125 1.3125q-0.984375 1.3125 -0.984375 3.375zm17.539062 -6.46875q2.8125 0 4.421875 1.8125q1.609375 1.8125 1.609375 4.6875q0 2.890625 -1.640625 4.6875q-1.640625 1.796875 -4.390625 1.796875q-2.6875 0 -4.359375 -1.765625q-1.65625 -1.765625 -1.65625 -4.71875q0 -2.953125 1.625 -4.71875q1.625 -1.78125 4.390625 -1.78125zm-3.859375 6.5q0 2.125 1.078125 3.40625q1.09375 1.265625 2.78125 1.265625q1.671875 0 2.765625 -1.265625q1.109375 -1.28125 1.109375 -3.40625q0 -2.125 -1.09375 -3.421875q-1.09375 -1.296875 -2.796875 -1.296875q-1.640625 0 -2.75 1.28125q-1.09375 1.265625 -1.09375 3.4375zm15.125 -9.9375l0 3.71875l2.46875 0l0 1.796875l-2.46875 0l0 7.765625q0 0.9375 0.609375 0.984375q0.625 0.046875 1.28125 0.046875l0.578125 0l0 1.8125l-1.6875 0q-1.671875 0 -2.25 -0.59375q-0.578125 -0.609375 -0.578125 -2.015625l0 -8.0l-2.109375 0l0 -1.796875l2.109375 0l0 -3.71875l2.046875 0z" fill-rule="nonzero"></path><path fill="#cc4125" d="m339.31226 476.25198l201.88977 0l0 107.08658l-201.88977 0z" fill-rule="evenodd"></path><path stroke="#000000" stroke-width="2.0" stroke-linejoin="round" stroke-linecap="butt" d="m339.31226 476.25198l201.88977 0l0 107.08658l-201.88977 0z" fill-rule="evenodd"></path><path fill="#ffffff" d="m384.33917 520.7884q3.03125 0 4.96875 1.453125q1.953125 1.453125 2.390625 4.234375l-2.28125 0q-0.328125 -1.8125 -1.671875 -2.78125q-1.328125 -0.984375 -3.421875 -0.984375q-2.734375 0 -4.3125 2.03125q-1.5625 2.03125 -1.5625 5.234375q0 2.9375 1.609375 4.890625q1.625 1.953125 4.265625 1.953125q2.46875 0 3.984375 -1.484375q1.53125 -1.484375 1.53125 -3.828125l0 -0.28125l-5.484375 0l0 -1.921875l7.5 0l0 9.03125l-1.421875 0l-0.609375 -2.140625q-0.921875 1.21875 -2.375 1.890625q-1.453125 0.65625 -3.125 0.65625q-3.5 0 -5.828125 -2.515625q-2.328125 -2.515625 -2.328125 -6.125q0 -4.0625 2.1875 -6.6875q2.203125 -2.625 5.984375 -2.625zm15.6953125 4.859375q2.671875 0 4.140625 1.921875q1.484375 1.921875 1.484375 4.921875l0 0.25l-9.28125 0l0 0.15625q0 1.765625 1.03125 2.84375q1.03125 1.078125 2.828125 1.078125q1.359375 0 2.15625 -0.625q0.8125 -0.640625 1.0625 -1.796875l2.015625 0q-0.421875 2.0625 -1.8125 3.15625q-1.390625 1.078125 -3.484375 1.078125q-1.96875 0 -3.328125 -0.890625q-1.34375 -0.890625 -1.984375 -2.453125q-0.640625 -1.578125 -0.640625 -3.234375q0 -2.75 1.640625 -4.578125q1.65625 -1.828125 4.171875 -1.828125zm-3.65625 5.296875l7.125 0q-0.09375 -1.515625 -1.109375 -2.515625q-1.0 -1.0 -2.5 -1.0q-1.40625 0 -2.40625 0.953125q-0.984375 0.953125 -1.109375 2.5625zm17.40625 -5.296875q2.234375 0 3.25 1.15625q1.015625 1.140625 1.015625 3.265625l0 8.265625l-2.03125 0l0 -8.46875q0 -1.0625 -0.6875 -1.75q-0.671875 -0.6875 -1.859375 -0.6875q-1.71875 0 -2.6875 1.0625q-0.96875 1.0625 -0.96875 2.75l0 7.09375l-2.046875 0l0 -12.40625l1.921875 0l0 1.96875l0.046875 0q0.6875 -1.171875 1.671875 -1.703125q1.0 -0.546875 2.375 -0.546875zm12.488281 0q2.671875 0 4.140625 1.921875q1.484375 1.921875 1.484375 4.921875l0 0.25l-9.28125 0l0 0.15625q0 1.765625 1.03125 2.84375q1.03125 1.078125 2.828125 1.078125q1.359375 0 2.15625 -0.625q0.8125 -0.640625 1.0625 -1.796875l2.015625 0q-0.421875 2.0625 -1.8125 3.15625q-1.390625 1.078125 -3.484375 1.078125q-1.96875 0 -3.328125 -0.890625q-1.34375 -0.890625 -1.984375 -2.453125q-0.640625 -1.578125 -0.640625 -3.234375q0 -2.75 1.640625 -4.578125q1.65625 -1.828125 4.171875 -1.828125zm-3.65625 5.296875l7.125 0q-0.09375 -1.515625 -1.109375 -2.515625q-1.0 -1.0 -2.5 -1.0q-1.40625 0 -2.40625 0.953125q-0.984375 0.953125 -1.109375 2.5625zm17.578125 -5.3125q0.0625 0 0.125 0q0.0625 0 0.15625 0.015625l0 2.15625q-2.296875 0 -3.40625 1.21875q-1.09375 1.21875 -1.09375 3.75l0 5.5625l-2.03125 0l0 -12.40625l1.921875 0l0 2.609375l0.046875 0q0.71875 -1.484375 1.765625 -2.1875q1.046875 -0.71875 2.515625 -0.71875zm6.8828125 0.015625q2.53125 0 3.59375 0.90625q1.0625 0.890625 1.0625 2.40625q0 6.453125 0 7.15625q0 0.703125 0.640625 0.703125q0.140625 0 0.296875 -0.03125q0.171875 -0.03125 0.328125 -0.078125l0 1.578125q-0.28125 0.171875 -0.65625 0.25q-0.359375 0.09375 -0.796875 0.09375q-0.84375 0 -1.296875 -0.46875q-0.4375 -0.484375 -0.4375 -1.453125q-0.8125 0.953125 -1.921875 1.4375q-1.09375 0.484375 -2.453125 0.484375q-1.921875 0 -3.015625 -0.90625q-1.078125 -0.921875 -1.078125 -2.578125q0 -1.671875 1.0625 -2.65625q1.0625 -0.984375 5.015625 -1.46875q1.328125 -0.171875 1.796875 -0.515625q0.484375 -0.34375 0.484375 -1.015625q0 -1.03125 -0.671875 -1.546875q-0.65625 -0.515625 -2.09375 -0.515625q-1.515625 0 -2.265625 0.578125q-0.75 0.578125 -0.8125 1.78125l-2.046875 0q0.09375 -2.0625 1.453125 -3.09375q1.359375 -1.046875 3.8125 -1.046875zm-3.578125 9.34375q0 0.875 0.625 1.359375q0.640625 0.46875 1.765625 0.46875q1.734375 0 2.765625 -0.84375q1.03125 -0.859375 1.03125 -1.921875l0 -2.125q-0.515625 0.359375 -1.34375 0.484375q-0.8125 0.125 -2.171875 0.3125q-1.359375 0.203125 -2.015625 0.75q-0.65625 0.53125 -0.65625 1.515625zm14.234375 -12.78125l0 3.71875l2.46875 0l0 1.796875l-2.46875 0l0 7.765625q0 0.9375 0.609375 0.984375q0.625 0.046875 1.28125 0.046875l0.578125 0l0 1.8125l-1.6875 0q-1.671875 0 -2.25 -0.59375q-0.578125 -0.609375 -0.578125 -2.015625l0 -8.0l-2.109375 0l0 -1.796875l2.109375 0l0 -3.71875l2.046875 0zm6.8710938 -1.015625l0 2.5l-2.03125 0l0 -2.5l2.03125 0zm0 4.734375l0 12.40625l-2.03125 0l0 -12.40625l2.03125 0zm8.535156 -0.28125q2.8125 0 4.421875 1.8125q1.609375 1.8125 1.609375 4.6875q0 2.890625 -1.640625 4.6875q-1.640625 1.796875 -4.390625 1.796875q-2.6875 0 -4.359375 -1.765625q-1.65625 -1.765625 -1.65625 -4.71875q0 -2.953125 1.625 -4.71875q1.625 -1.78125 4.390625 -1.78125zm-3.859375 6.5q0 2.125 1.078125 3.40625q1.09375 1.265625 2.78125 1.265625q1.671875 0 2.765625 -1.265625q1.109375 -1.28125 1.109375 -3.40625q0 -2.125 -1.09375 -3.421875q-1.09375 -1.296875 -2.796875 -1.296875q-1.640625 0 -2.75 1.28125q-1.09375 1.265625 -1.09375 3.4375zm18.296875 -6.5q2.234375 0 3.25 1.15625q1.015625 1.140625 1.015625 3.265625l0 8.265625l-2.03125 0l0 -8.46875q0 -1.0625 -0.6875 -1.75q-0.671875 -0.6875 -1.859375 -0.6875q-1.71875 0 -2.6875 1.0625q-0.96875 1.0625 -0.96875 2.75l0 7.09375l-2.046875 0l0 -12.40625l1.921875 0l0 1.96875l0.046875 0q0.6875 -1.171875 1.671875 -1.703125q1.0 -0.546875 2.375 -0.546875zm11.457031 0q2.515625 0 3.734375 0.96875q1.21875 0.96875 1.328125 2.90625l-2.03125 0l0 -0.03125q-0.078125 -0.984375 -0.859375 -1.515625q-0.78125 -0.546875 -2.015625 -0.546875q-1.234375 0 -1.9375 0.421875q-0.703125 0.421875 -0.703125 1.171875q0 0.671875 0.625 1.109375q0.625 0.4375 1.890625 0.703125l1.921875 0.4375q1.796875 0.390625 2.734375 1.21875q0.9375 0.828125 0.9375 2.21875q0 1.828125 -1.421875 2.875q-1.40625 1.046875 -3.859375 1.046875q-2.375 0 -3.78125 -1.0625q-1.390625 -1.078125 -1.484375 -3.15625l2.0625 0q0.03125 1.171875 0.90625 1.796875q0.875 0.609375 2.421875 0.609375q1.46875 0 2.234375 -0.46875q0.765625 -0.46875 0.765625 -1.375q0 -0.84375 -0.765625 -1.328125q-0.75 -0.484375 -3.09375 -0.953125q-2.34375 -0.453125 -3.296875 -1.28125q-0.953125 -0.84375 -0.953125 -2.25q0 -1.625 1.3125 -2.5625q1.328125 -0.953125 3.328125 -0.953125z" fill-rule="nonzero"></path><path fill="#cc4125" d="m7.9999228 242.12466l201.88976 0l0 107.08661l-201.88976 0z" fill-rule="evenodd"></path><path stroke="#000000" stroke-width="2.0" stroke-linejoin="round" stroke-linecap="butt" d="m7.9999228 242.12466l201.88976 0l0 107.08661l-201.88976 0z" fill-rule="evenodd"></path><path fill="#ffffff" d="m65.4409 286.6611q2.859375 0 4.53125 1.390625q1.6875 1.375 1.796875 4.03125l-2.15625 0q-0.203125 -1.75 -1.28125 -2.625q-1.0625 -0.875 -2.984375 -0.875q-1.828125 0 -2.84375 0.765625q-1.0 0.75 -1.0 2.15625q0 1.0 0.859375 1.65625q0.875 0.640625 4.65625 1.40625q2.734375 0.5625 4.09375 1.71875q1.359375 1.15625 1.359375 3.21875q0 2.390625 -1.953125 3.75q-1.9375 1.359375 -4.75 1.359375q-3.09375 0 -5.0625 -1.546875q-1.96875 -1.5625 -2.0 -4.5l2.15625 0q0.03125 1.953125 1.40625 3.046875q1.375 1.078125 3.59375 1.078125q2.0625 0 3.203125 -0.796875q1.140625 -0.8125 1.140625 -2.3125q0 -1.21875 -1.046875 -1.953125q-1.046875 -0.75 -3.78125 -1.28125q-3.65625 -0.6875 -4.90625 -1.78125q-1.234375 -1.09375 -1.234375 -2.890625q0 -2.3125 1.75 -3.65625q1.75 -1.359375 4.453125 -1.359375zm11.613281 0.40625l0 2.5l-2.03125 0l0 -2.5l2.03125 0zm0 4.734375l0 12.40625l-2.03125 0l0 -12.40625l2.03125 0zm9.160156 -0.28125q1.359375 0 2.21875 0.546875q0.859375 0.546875 1.1875 1.5625q0.640625 -1.0 1.65625 -1.546875q1.015625 -0.5625 2.25 -0.5625q2.09375 0 3.09375 0.953125q1.015625 0.9375 1.015625 2.5625l0 9.171875l-2.03125 0l0 -8.234375q0 -1.328125 -0.578125 -2.0q-0.5625 -0.671875 -1.828125 -0.671875q-1.53125 0 -2.390625 0.890625q-0.84375 0.890625 -0.84375 2.21875l0 7.796875l-2.046875 0l0 -8.234375q0 -1.328125 -0.5625 -2.0q-0.5625 -0.671875 -1.765625 -0.671875q-0.96875 0 -1.71875 0.46875q-0.75 0.46875 -1.171875 1.296875q-0.421875 0.8125 -0.421875 1.375l0 7.765625l-2.046875 0l0 -12.40625l1.921875 0l0 1.828125l0.046875 0q0.703125 -1.078125 1.703125 -1.59375q1.0 -0.515625 2.3125 -0.515625zm16.535156 0.28125l0 8.453125q0 1.0625 0.671875 1.75q0.671875 0.6875 1.859375 0.6875q1.75 0 2.703125 -1.0625q0.96875 -1.078125 0.96875 -2.75l0 -7.078125l2.03125 0l0 12.40625l-1.921875 0l0 -1.96875l-0.046875 0q-0.671875 1.1875 -1.703125 1.734375q-1.015625 0.53125 -2.34375 0.53125q-2.15625 0 -3.21875 -1.125q-1.046875 -1.125 -1.046875 -3.3125l0 -8.265625l2.046875 0zm13.457031 -4.734375l0 17.140625l-2.03125 0l0 -17.140625l2.03125 0zm8.253906 4.453125q2.53125 0 3.59375 0.90625q1.0625 0.890625 1.0625 2.40625q0 6.453125 0 7.15625q0 0.703125 0.640625 0.703125q0.140625 0 0.296875 -0.03125q0.171875 -0.03125 0.328125 -0.078125l0 1.578125q-0.28125 0.171875 -0.65625 0.25q-0.359375 0.09375 -0.796875 0.09375q-0.84375 0 -1.296875 -0.46875q-0.4375 -0.484375 -0.4375 -1.453125q-0.8125 0.953125 -1.921875 1.4375q-1.09375 0.484375 -2.453125 0.484375q-1.921875 0 -3.015625 -0.90625q-1.078125 -0.921875 -1.078125 -2.578125q0 -1.671875 1.0625 -2.65625q1.0625 -0.984375 5.015625 -1.46875q1.328125 -0.171875 1.796875 -0.515625q0.484375 -0.34375 0.484375 -1.015625q0 -1.03125 -0.671875 -1.546875q-0.65625 -0.515625 -2.09375 -0.515625q-1.515625 0 -2.265625 0.578125q-0.75 0.578125 -0.8125 1.78125l-2.046875 0q0.09375 -2.0625 1.453125 -3.09375q1.359375 -1.046875 3.8125 -1.046875zm-3.578125 9.34375q0 0.875 0.625 1.359375q0.640625 0.46875 1.765625 0.46875q1.734375 0 2.765625 -0.84375q1.03125 -0.859375 1.03125 -1.921875l0 -2.125q-0.515625 0.359375 -1.34375 0.484375q-0.8125 0.125 -2.171875 0.3125q-1.359375 0.203125 -2.015625 0.75q-0.65625 0.53125 -0.65625 1.515625zm14.234375 -12.78125l0 3.71875l2.46875 0l0 1.796875l-2.46875 0l0 7.765625q0 0.9375 0.609375 0.984375q0.625 0.046875 1.28125 0.046875l0.578125 0l0 1.8125l-1.6875 0q-1.671875 0 -2.25 -0.59375q-0.578125 -0.609375 -0.578125 -2.015625l0 -8.0l-2.109375 0l0 -1.796875l2.109375 0l0 -3.71875l2.046875 0zm10.074219 3.4375q2.8125 0 4.421875 1.8125q1.609375 1.8125 1.609375 4.6875q0 2.890625 -1.640625 4.6875q-1.640625 1.796875 -4.390625 1.796875q-2.6875 0 -4.359375 -1.765625q-1.65625 -1.765625 -1.65625 -4.71875q0 -2.953125 1.625 -4.71875q1.625 -1.78125 4.390625 -1.78125zm-3.859375 6.5q0 2.125 1.078125 3.40625q1.09375 1.265625 2.78125 1.265625q1.671875 0 2.765625 -1.265625q1.109375 -1.28125 1.109375 -3.40625q0 -2.125 -1.09375 -3.421875q-1.09375 -1.296875 -2.796875 -1.296875q-1.640625 0 -2.75 1.28125q-1.09375 1.265625 -1.09375 3.4375zm18.46875 -6.515625q0.0625 0 0.125 0q0.0625 0 0.15625 0.015625l0 2.15625q-2.296875 0 -3.40625 1.21875q-1.09375 1.21875 -1.09375 3.75l0 5.5625l-2.03125 0l0 -12.40625l1.921875 0l0 2.609375l0.046875 0q0.71875 -1.484375 1.765625 -2.1875q1.046875 -0.71875 2.515625 -0.71875z" fill-rule="nonzero"></path><path fill="#000000" fill-opacity="0.0" d="m440.25714 476.25198l0 -127.055145" fill-rule="evenodd"></path><path stroke="#000000" stroke-width="2.0" stroke-linejoin="round" stroke-linecap="butt" d="m440.25714 476.25198l0 -127.055145" fill-rule="evenodd"></path><path fill="#000000" fill-opacity="0.0" d="m440.25714 115.08662l-331.3071 127.02361" fill-rule="evenodd"></path><path stroke="#000000" stroke-width="2.0" stroke-linejoin="round" stroke-linecap="butt" d="m440.25714 115.08662l-331.3071 127.02361" fill-rule="evenodd"></path><path fill="#000000" fill-opacity="0.0" d="m440.25714 115.08662l331.30707 127.02361" fill-rule="evenodd"></path><path stroke="#000000" stroke-width="2.0" stroke-linejoin="round" stroke-linecap="butt" d="m440.25714 115.08662l331.30707 127.02361" fill-rule="evenodd"></path><path fill="#000000" fill-opacity="0.0" d="m440.25714 115.08662l0 127.05512" fill-rule="evenodd"></path><path stroke="#000000" stroke-width="2.0" stroke-linejoin="round" stroke-linecap="butt" d="m440.25714 115.08662l0 127.05512" fill-rule="evenodd"></path></g></svg>

